<svg id="visual" viewBox="0 0 900 600" width="900" height="600" xmlns="http://www.w3.org/2000/svg" xmlns:xlink="http://www.w3.org/1999/xlink" version="1.1"><rect x="0" y="0" width="900" height="600" fill="#001220"></rect><path d="M0 374L21.5 371.2C43 368.3 86 362.7 128.8 369.2C171.7 375.7 214.3 394.3 257.2 408.7C300 423 343 433 385.8 434.5C428.7 436 471.3 429 514.2 414.8C557 400.7 600 379.3 642.8 367.5C685.7 355.7 728.3 353.3 771.2 360.5C814 367.7 857 384.3 878.5 392.7L900 401L900 601L878.5 601C857 601 814 601 771.2 601C728.3 601 685.7 601 642.8 601C600 601 557 601 514.2 601C471.3 601 428.7 601 385.8 601C343 601 300 601 257.2 601C214.3 601 171.7 601 128.8 601C86 601 43 601 21.5 601L0 601Z" fill="#6600ff"></path><path d="M0 451L21.5 449.2C43 447.3 86 443.7 128.8 434.3C171.7 425 214.3 410 257.2 402.5C300 395 343 395 385.8 409C428.7 423 471.3 451 514.2 452C557 453 600 427 642.8 422C685.7 417 728.3 433 771.2 437.2C814 441.3 857 433.7 878.5 429.8L900 426L900 601L878.5 601C857 601 814 601 771.2 601C728.3 601 685.7 601 642.8 601C600 601 557 601 514.2 601C471.3 601 428.7 601 385.8 601C343 601 300 601 257.2 601C214.3 601 171.7 601 128.8 601C86 601 43 601 21.5 601L0 601Z" fill="#4913c3"></path><path d="M0 456L21.5 458.3C43 460.7 86 465.3 128.8 473.3C171.7 481.3 214.3 492.7 257.2 495.7C300 498.7 343 493.3 385.8 484.3C428.7 475.3 471.3 462.7 514.2 463.8C557 465 600 480 642.8 484.3C685.7 488.7 728.3 482.3 771.2 480.3C814 478.3 857 480.7 878.5 481.8L900 483L900 601L878.5 601C857 601 814 601 771.2 601C728.3 601 685.7 601 642.8 601C600 601 557 601 514.2 601C471.3 601 428.7 601 385.8 601C343 601 300 601 257.2 601C214.3 601 171.7 601 128.8 601C86 601 43 601 21.5 601L0 601Z" fill="#311489"></path><path d="M0 511L21.5 510C43 509 86 507 128.8 510C171.7 513 214.3 521 257.2 521C300 521 343 513 385.8 509.7C428.7 506.3 471.3 507.7 514.2 510.3C557 513 600 517 642.8 519.8C685.7 522.7 728.3 524.3 771.2 526.5C814 528.7 857 531.3 878.5 532.7L900 534L900 601L878.5 601C857 601 814 601 771.2 601C728.3 601 685.7 601 642.8 601C600 601 557 601 514.2 601C471.3 601 428.7 601 385.8 601C343 601 300 601 257.2 601C214.3 601 171.7 601 128.8 601C86 601 43 601 21.5 601L0 601Z" fill="#1e1052"></path><path d="M0 560L21.5 554.2C43 548.3 86 536.7 128.8 533.7C171.7 530.7 214.3 536.3 257.2 539C300 541.7 343 541.3 385.8 539.2C428.7 537 471.3 533 514.2 533.8C557 534.7 600 540.3 642.8 539.5C685.7 538.7 728.3 531.3 771.2 529.5C814 527.7 857 531.3 878.5 533.2L900 535L900 601L878.5 601C857 601 814 601 771.2 601C728.3 601 685.7 601 642.8 601C600 601 557 601 514.2 601C471.3 601 428.7 601 385.8 601C343 601 300 601 257.2 601C214.3 601 171.7 601 128.8 601C86 601 43 601 21.5 601L0 601Z" fill="#100021"></path></svg>